# xmcd CD database file
#
# Track frame offsets:
#	150
#	16560
#	36512
#	59322
#	76450
#	88895
#	106410
#	125645
#	145132
#	162715
#
# Disc length: 2375 seconds
#
# Revision: 2
# Processed by: cddbd v1.5.2PL0 Copyright (c) Steve Scherf et al.
# Submitted via: CDex 1.70beta2
#
DISCID=8709450a
DTITLE=Legendary Blues Band - U B Da Judge
DYEAR=1991
DGENRE=Blues
TTITLE0=Got Love If You Want It
TTITLE1=Things Could Be Worse
TTITLE2=Eye To Eye
TTITLE3=In The Rain
TTITLE4=Watch Your Enemies
TTITLE5=Don't Say That No More
TTITLE6=I Don't Trust You, Man
TTITLE7=No One To Love
TTITLE8=When The Blues Come Around
TTITLE9=Who's Been Talking
EXTD=YEAR: 1991
EXTT0=
EXTT1=
EXTT2=
EXTT3=
EXTT4=
EXTT5=
EXTT6=
EXTT7=
EXTT8=
EXTT9=
PLAYORDER=
